<?xml version="1.0" encoding="UTF-8" standalone="no"?>
<!DOCTYPE svg PUBLIC "-//W3C//DTD SVG 1.1//EN"
 "http://www.w3.org/Graphics/SVG/1.1/DTD/svg11.dtd">
<!-- Generated by graphviz version 9.0.0 (20230911.1827)
 -->
<!-- Pages: 1 -->
<svg width="896pt" height="134pt"
 viewBox="0.00 0.00 895.50 134.00" xmlns="http://www.w3.org/2000/svg" xmlns:xlink="http://www.w3.org/1999/xlink">
<g id="graph0" class="graph" transform="scale(1 1) rotate(0) translate(4 130)">
<polygon fill="white" stroke="none" points="-4,4 -4,-130 891.5,-130 891.5,4 -4,4"/>
<!-- 4393533008 -->
<g id="node1" class="node">
<title>4393533008</title>
<polygon fill="none" stroke="black" points="0,-89.5 0,-125.5 76.25,-125.5 76.25,-89.5 0,-89.5"/>
<text text-anchor="middle" x="11.38" y="-102.7" font-family="Times,serif" font-size="14.00">b</text>
<polyline fill="none" stroke="black" points="22.75,-90 22.75,-125.5"/>
<text text-anchor="middle" x="49.5" y="-102.7" font-family="Times,serif" font-size="14.00">data &#45;3</text>
</g>
<!-- 4393527632+ -->
<g id="node5" class="node">
<title>4393527632+</title>
<ellipse fill="none" stroke="black" cx="139.25" cy="-103.5" rx="27" ry="18"/>
<text text-anchor="middle" x="139.25" y="-98.45" font-family="Times,serif" font-size="14.00">+</text>
</g>
<!-- 4393533008&#45;&gt;4393527632+ -->
<g id="edge8" class="edge">
<title>4393533008&#45;&gt;4393527632+</title>
<path fill="none" stroke="black" d="M76.6,-105.99C84.39,-105.67 92.61,-105.34 100.41,-105.03"/>
<polygon fill="black" stroke="black" points="100.47,-108.53 110.32,-104.63 100.19,-101.53 100.47,-108.53"/>
</g>
<!-- 4388479120 -->
<g id="node2" class="node">
<title>4388479120</title>
<polygon fill="none" stroke="black" points="803,-23.5 803,-59.5 887.5,-59.5 887.5,-23.5 803,-23.5"/>
<text text-anchor="middle" x="813.25" y="-36.7" font-family="Times,serif" font-size="14.00">f</text>
<polyline fill="none" stroke="black" points="823.5,-24 823.5,-59.5"/>
<text text-anchor="middle" x="855.5" y="-36.7" font-family="Times,serif" font-size="14.00">data &#45;0.5</text>
</g>
<!-- 4388479120/ -->
<g id="node3" class="node">
<title>4388479120/</title>
<ellipse fill="none" stroke="black" cx="740" cy="-41.5" rx="27" ry="18"/>
<text text-anchor="middle" x="740" y="-36.45" font-family="Times,serif" font-size="14.00">/</text>
</g>
<!-- 4388479120/&#45;&gt;4388479120 -->
<g id="edge1" class="edge">
<title>4388479120/&#45;&gt;4388479120</title>
<path fill="none" stroke="black" d="M767.32,-41.5C774.72,-41.5 783.03,-41.5 791.39,-41.5"/>
<polygon fill="black" stroke="black" points="791.21,-45 801.21,-41.5 791.21,-38 791.21,-45"/>
</g>
<!-- 4393527632 -->
<g id="node4" class="node">
<title>4393527632</title>
<polygon fill="none" stroke="black" points="202.25,-85.5 202.25,-121.5 277.75,-121.5 277.75,-85.5 202.25,-85.5"/>
<text text-anchor="middle" x="213.25" y="-98.7" font-family="Times,serif" font-size="14.00">c</text>
<polyline fill="none" stroke="black" points="224.25,-86 224.25,-121.5"/>
<text text-anchor="middle" x="251" y="-98.7" font-family="Times,serif" font-size="14.00">data &#45;1</text>
</g>
<!-- 4388482960* -->
<g id="node9" class="node">
<title>4388482960*</title>
<ellipse fill="none" stroke="black" cx="340.75" cy="-65.5" rx="27" ry="18"/>
<text text-anchor="middle" x="340.75" y="-60.45" font-family="Times,serif" font-size="14.00">*</text>
</g>
<!-- 4393527632&#45;&gt;4388482960* -->
<g id="edge5" class="edge">
<title>4393527632&#45;&gt;4388482960*</title>
<path fill="none" stroke="black" d="M278.05,-89.24C287.31,-85.68 297.19,-81.88 306.27,-78.39"/>
<polygon fill="black" stroke="black" points="307.36,-81.72 315.43,-74.86 304.84,-75.18 307.36,-81.72"/>
</g>
<!-- 4393527632+&#45;&gt;4393527632 -->
<g id="edge2" class="edge">
<title>4393527632+&#45;&gt;4393527632</title>
<path fill="none" stroke="black" d="M166.71,-103.5C174.09,-103.5 182.35,-103.5 190.57,-103.5"/>
<polygon fill="black" stroke="black" points="190.56,-107 200.56,-103.5 190.56,-100 190.56,-107"/>
</g>
<!-- 4388474320 -->
<g id="node6" class="node">
<title>4388474320</title>
<polygon fill="none" stroke="black" points="606,-0.5 606,-36.5 677,-36.5 677,-0.5 606,-0.5"/>
<text text-anchor="middle" x="617" y="-13.7" font-family="Times,serif" font-size="14.00">e</text>
<polyline fill="none" stroke="black" points="628,-1 628,-36.5"/>
<text text-anchor="middle" x="652.5" y="-13.7" font-family="Times,serif" font-size="14.00">data 4</text>
</g>
<!-- 4388474320&#45;&gt;4388479120/ -->
<g id="edge6" class="edge">
<title>4388474320&#45;&gt;4388479120/</title>
<path fill="none" stroke="black" d="M677.34,-26.8C685.73,-28.8 694.7,-30.94 703.14,-32.95"/>
<polygon fill="black" stroke="black" points="702.18,-36.32 712.72,-35.24 703.81,-29.51 702.18,-36.32"/>
</g>
<!-- 4388474320&#45; -->
<g id="node7" class="node">
<title>4388474320&#45;</title>
<ellipse fill="none" stroke="black" cx="543" cy="-18.5" rx="27" ry="18"/>
<text text-anchor="middle" x="543" y="-13.45" font-family="Times,serif" font-size="14.00">&#45;</text>
</g>
<!-- 4388474320&#45;&#45;&gt;4388474320 -->
<g id="edge3" class="edge">
<title>4388474320&#45;&#45;&gt;4388474320</title>
<path fill="none" stroke="black" d="M570.37,-18.5C577.8,-18.5 586.12,-18.5 594.35,-18.5"/>
<polygon fill="black" stroke="black" points="594.32,-22 604.32,-18.5 594.32,-15 594.32,-22"/>
</g>
<!-- 4388482960 -->
<g id="node8" class="node">
<title>4388482960</title>
<polygon fill="none" stroke="black" points="403.75,-47.5 403.75,-83.5 480,-83.5 480,-47.5 403.75,-47.5"/>
<text text-anchor="middle" x="415.12" y="-60.7" font-family="Times,serif" font-size="14.00">d</text>
<polyline fill="none" stroke="black" points="426.5,-48 426.5,-83.5"/>
<text text-anchor="middle" x="453.25" y="-60.7" font-family="Times,serif" font-size="14.00">data &#45;2</text>
</g>
<!-- 4388482960&#45;&gt;4388479120/ -->
<g id="edge12" class="edge">
<title>4388482960&#45;&gt;4388479120/</title>
<path fill="none" stroke="black" d="M480.38,-62.46C537.19,-57.86 644.45,-49.16 701.35,-44.55"/>
<polygon fill="black" stroke="black" points="701.5,-48.05 711.18,-43.75 700.93,-41.07 701.5,-48.05"/>
</g>
<!-- 4388482960&#45;&gt;4388474320&#45; -->
<g id="edge7" class="edge">
<title>4388482960&#45;&gt;4388474320&#45;</title>
<path fill="none" stroke="black" d="M480.35,-47.73C490.15,-43.09 500.62,-38.12 510.1,-33.63"/>
<polygon fill="black" stroke="black" points="511.39,-36.89 518.92,-29.44 508.39,-30.56 511.39,-36.89"/>
</g>
<!-- 4388482960*&#45;&gt;4388482960 -->
<g id="edge4" class="edge">
<title>4388482960*&#45;&gt;4388482960</title>
<path fill="none" stroke="black" d="M368.05,-65.5C375.38,-65.5 383.59,-65.5 391.78,-65.5"/>
<polygon fill="black" stroke="black" points="391.74,-69 401.74,-65.5 391.74,-62 391.74,-69"/>
</g>
<!-- 4393525200 -->
<g id="node10" class="node">
<title>4393525200</title>
<polygon fill="none" stroke="black" points="2.62,-34.5 2.62,-70.5 73.62,-70.5 73.62,-34.5 2.62,-34.5"/>
<text text-anchor="middle" x="13.62" y="-47.7" font-family="Times,serif" font-size="14.00">a</text>
<polyline fill="none" stroke="black" points="24.62,-35 24.62,-70.5"/>
<text text-anchor="middle" x="49.12" y="-47.7" font-family="Times,serif" font-size="14.00">data 2</text>
</g>
<!-- 4393525200&#45;&gt;4393527632+ -->
<g id="edge9" class="edge">
<title>4393525200&#45;&gt;4393527632+</title>
<path fill="none" stroke="black" d="M74.07,-70.48C84.86,-76.03 96.66,-82.1 107.16,-87.51"/>
<polygon fill="black" stroke="black" points="105.32,-90.49 115.81,-91.95 108.52,-84.27 105.32,-90.49"/>
</g>
<!-- 4393525200&#45;&gt;4388474320&#45; -->
<g id="edge10" class="edge">
<title>4393525200&#45;&gt;4388474320&#45;</title>
<path fill="none" stroke="black" d="M73.84,-42.94C113.47,-32.88 180.39,-18.5 239,-18.5 239,-18.5 239,-18.5 341.75,-18.5 398.43,-18.5 464.12,-18.5 504.37,-18.5"/>
<polygon fill="black" stroke="black" points="504.25,-22 514.25,-18.5 504.25,-15 504.25,-22"/>
</g>
<!-- 4393525200&#45;&gt;4388482960* -->
<g id="edge11" class="edge">
<title>4393525200&#45;&gt;4388482960*</title>
<path fill="none" stroke="black" d="M73.9,-54C130.88,-56.47 243.6,-61.34 302.28,-63.88"/>
<polygon fill="black" stroke="black" points="301.95,-67.37 312.09,-64.3 302.25,-60.37 301.95,-67.37"/>
</g>
</g>
</svg>
