<?xml version="1.0" encoding="UTF-8" standalone="no"?>
<!DOCTYPE svg PUBLIC "-//W3C//DTD SVG 1.1//EN"
 "http://www.w3.org/Graphics/SVG/1.1/DTD/svg11.dtd">
<!-- Generated by graphviz version 8.1.0 (20230707.0739)
 -->
<!-- Pages: 1 -->
<svg width="727pt" height="116pt"
 viewBox="0.00 0.00 727.00 115.50" xmlns="http://www.w3.org/2000/svg" xmlns:xlink="http://www.w3.org/1999/xlink">
<g id="graph0" class="graph" transform="scale(1 1) rotate(0) translate(4 111.5)">
<polygon fill="white" stroke="none" points="-4,4 -4,-111.5 723,-111.5 723,4 -4,4"/>
<!-- 4437569040 -->
<g id="node1" class="node">
<title>4437569040</title>
<polygon fill="none" stroke="black" points="2.62,-55.5 2.62,-91.5 84.12,-91.5 84.12,-55.5 2.62,-55.5"/>
<text text-anchor="middle" x="13.62" y="-68.7" font-family="Times,serif" font-size="14.00">a</text>
<polyline fill="none" stroke="black" points="24.62,-56 24.62,-91.5"/>
<text text-anchor="middle" x="54.38" y="-68.7" font-family="Times,serif" font-size="14.00">data 2.0</text>
</g>
<!-- 4437525776* -->
<g id="node3" class="node">
<title>4437525776*</title>
<ellipse fill="none" stroke="black" cx="361.75" cy="-60.5" rx="27" ry="18"/>
<text text-anchor="middle" x="361.75" y="-55.45" font-family="Times,serif" font-size="14.00">*</text>
</g>
<!-- 4437569040&#45;&gt;4437525776* -->
<g id="edge4" class="edge">
<title>4437569040&#45;&gt;4437525776*</title>
<path fill="none" stroke="black" d="M84.12,-71.87C145.86,-69.33 263.93,-64.48 323.87,-62.02"/>
<polygon fill="black" stroke="black" points="323.86,-65.48 333.71,-61.57 323.57,-58.48 323.86,-65.48"/>
</g>
<!-- 4437625168&#45; -->
<g id="node5" class="node">
<title>4437625168&#45;</title>
<ellipse fill="none" stroke="black" cx="573.75" cy="-83.5" rx="27" ry="18"/>
<text text-anchor="middle" x="573.75" y="-78.45" font-family="Times,serif" font-size="14.00">&#45;</text>
</g>
<!-- 4437569040&#45;&gt;4437625168&#45; -->
<g id="edge7" class="edge">
<title>4437569040&#45;&gt;4437625168&#45;</title>
<path fill="none" stroke="black" d="M84.01,-83.79C126.07,-93.8 194.63,-107.5 254.75,-107.5 254.75,-107.5 254.75,-107.5 362.75,-107.5 424.1,-107.5 494.87,-97.27 536.6,-90.16"/>
<polygon fill="black" stroke="black" points="537.07,-93.46 546.32,-88.3 535.87,-86.56 537.07,-93.46"/>
</g>
<!-- 4437630352+ -->
<g id="node7" class="node">
<title>4437630352+</title>
<ellipse fill="none" stroke="black" cx="149.75" cy="-22.5" rx="27" ry="18"/>
<text text-anchor="middle" x="149.75" y="-17.45" font-family="Times,serif" font-size="14.00">+</text>
</g>
<!-- 4437569040&#45;&gt;4437630352+ -->
<g id="edge9" class="edge">
<title>4437569040&#45;&gt;4437630352+</title>
<path fill="none" stroke="black" d="M81.17,-55.52C93.16,-49.66 106.33,-43.23 117.84,-37.6"/>
<polygon fill="black" stroke="black" points="119,-40.44 126.45,-32.91 115.93,-34.15 119,-40.44"/>
</g>
<!-- 4437525776 -->
<g id="node2" class="node">
<title>4437525776</title>
<polygon fill="none" stroke="black" points="424.75,-42.5 424.75,-78.5 510.75,-78.5 510.75,-42.5 424.75,-42.5"/>
<text text-anchor="middle" x="435.75" y="-55.7" font-family="Times,serif" font-size="14.00">e</text>
<polyline fill="none" stroke="black" points="446.75,-43 446.75,-78.5"/>
<text text-anchor="middle" x="478.75" y="-55.7" font-family="Times,serif" font-size="14.00">data &#45;2.0</text>
</g>
<!-- 4437525776&#45;&gt;4437625168&#45; -->
<g id="edge5" class="edge">
<title>4437525776&#45;&gt;4437625168&#45;</title>
<path fill="none" stroke="black" d="M510.45,-69.72C519.35,-71.69 528.67,-73.75 537.31,-75.66"/>
<polygon fill="black" stroke="black" points="536.29,-79.24 546.81,-77.98 537.8,-72.41 536.29,-79.24"/>
</g>
<!-- 4437525776*&#45;&gt;4437525776 -->
<g id="edge1" class="edge">
<title>4437525776*&#45;&gt;4437525776</title>
<path fill="none" stroke="black" d="M388.99,-60.5C396.69,-60.5 405.4,-60.5 414.13,-60.5"/>
<polygon fill="black" stroke="black" points="414.13,-64 424.13,-60.5 414.13,-57 414.13,-64"/>
</g>
<!-- 4437625168 -->
<g id="node4" class="node">
<title>4437625168</title>
<polygon fill="none" stroke="black" points="636.75,-65.5 636.75,-101.5 719,-101.5 719,-65.5 636.75,-65.5"/>
<text text-anchor="middle" x="648.12" y="-78.7" font-family="Times,serif" font-size="14.00">d</text>
<polyline fill="none" stroke="black" points="659.5,-66 659.5,-101.5"/>
<text text-anchor="middle" x="689.25" y="-78.7" font-family="Times,serif" font-size="14.00">data 4.0</text>
</g>
<!-- 4437625168&#45;&#45;&gt;4437625168 -->
<g id="edge2" class="edge">
<title>4437625168&#45;&#45;&gt;4437625168</title>
<path fill="none" stroke="black" d="M601.05,-83.5C608.7,-83.5 617.32,-83.5 625.94,-83.5"/>
<polygon fill="black" stroke="black" points="625.78,-87 635.78,-83.5 625.78,-80 625.78,-87"/>
</g>
<!-- 4437630352 -->
<g id="node6" class="node">
<title>4437630352</title>
<polygon fill="none" stroke="black" points="212.75,-4.5 212.75,-40.5 298.75,-40.5 298.75,-4.5 212.75,-4.5"/>
<text text-anchor="middle" x="223.75" y="-17.7" font-family="Times,serif" font-size="14.00">c</text>
<polyline fill="none" stroke="black" points="234.75,-5 234.75,-40.5"/>
<text text-anchor="middle" x="266.75" y="-17.7" font-family="Times,serif" font-size="14.00">data &#45;1.0</text>
</g>
<!-- 4437630352&#45;&gt;4437525776* -->
<g id="edge8" class="edge">
<title>4437630352&#45;&gt;4437525776*</title>
<path fill="none" stroke="black" d="M298.45,-37.74C308.04,-41.24 318.11,-44.92 327.29,-48.28"/>
<polygon fill="black" stroke="black" points="325.99,-51.89 336.58,-52.04 328.39,-45.32 325.99,-51.89"/>
</g>
<!-- 4437630352+&#45;&gt;4437630352 -->
<g id="edge3" class="edge">
<title>4437630352+&#45;&gt;4437630352</title>
<path fill="none" stroke="black" d="M176.99,-22.5C184.69,-22.5 193.4,-22.5 202.13,-22.5"/>
<polygon fill="black" stroke="black" points="202.13,-26 212.13,-22.5 202.13,-19 202.13,-26"/>
</g>
<!-- 4437624272 -->
<g id="node8" class="node">
<title>4437624272</title>
<polygon fill="none" stroke="black" points="0,-0.5 0,-36.5 86.75,-36.5 86.75,-0.5 0,-0.5"/>
<text text-anchor="middle" x="11.38" y="-13.7" font-family="Times,serif" font-size="14.00">b</text>
<polyline fill="none" stroke="black" points="22.75,-1 22.75,-36.5"/>
<text text-anchor="middle" x="54.75" y="-13.7" font-family="Times,serif" font-size="14.00">data &#45;3.0</text>
</g>
<!-- 4437624272&#45;&gt;4437630352+ -->
<g id="edge6" class="edge">
<title>4437624272&#45;&gt;4437630352+</title>
<path fill="none" stroke="black" d="M86.53,-20.12C94.76,-20.43 103.33,-20.76 111.39,-21.07"/>
<polygon fill="black" stroke="black" points="111.23,-24.6 121.36,-21.49 111.5,-17.61 111.23,-24.6"/>
</g>
</g>
</svg>
